<svg width="15" height="16" viewBox="0 -2 24 24" fill="none" xmlns="http://www.w3.org/2000/svg">
<path d="M12 3H12.01H12ZM7 3H7.01H7ZM17 3H17.01Z" fill="#7D34BD"/>
<path d="M17 3H17.01M12 3H12.01H12ZM7 3H7.01H7Z" stroke="#7D34BD" stroke-width="2" stroke-linecap="round" stroke-linejoin="round"/>
<path fill-rule="evenodd" clip-rule="evenodd" d="M7 5C7.26522 5 7.51957 5.10536 7.70711 5.29289C7.89464 5.48043 8 5.73478 8 6V8H11V6C11 5.73478 11.1054 5.48043 11.2929 5.29289C11.4804 5.10536 11.7348 5 12 5C12.2652 5 12.5196 5.10536 12.7071 5.29289C12.8946 5.48043 13 5.73478 13 6V8H16V6C16 5.73478 16.1054 5.48043 16.2929 5.29289C16.4804 5.10536 16.7348 5 17 5C17.2652 5 17.5196 5.10536 17.7071 5.29289C17.8946 5.48043 18 5.73478 18 6V8.1C18.9949 8.3036 19.9043 8.80502 20.6075 9.53768C21.3107 10.2703 21.7744 11.1996 21.937 12.202C21.537 12.357 21.187 12.585 20.89 12.832C20.358 13.272 19.924 13.826 19.588 14.292C19.323 14.659 18.874 15 18 15C17.126 15 16.676 14.658 16.412 14.29C16.1513 13.9096 16.0081 13.4611 16 13C16 12.7348 15.8946 12.4804 15.7071 12.2929C15.5196 12.1054 15.2652 12 15 12C14.7348 12 14.4804 12.1054 14.2929 12.2929C14.1054 12.4804 14 12.7348 14 13C14 13.34 13.89 13.872 13.588 14.29C13.324 14.658 12.874 15 12 15C11.126 15 10.676 14.658 10.412 14.29C10.1513 13.9096 10.0081 13.4611 10 13C10 12.7348 9.89464 12.4804 9.70711 12.2929C9.51957 12.1054 9.26522 12 9 12C8.73478 12 8.48043 12.1054 8.29289 12.2929C8.10536 12.4804 8 12.7348 8 13C8 13.34 7.89 13.872 7.588 14.29C7.324 14.658 6.874 15 6 15C5.126 15 4.677 14.659 4.412 14.291C4.076 13.826 3.642 13.272 3.11 12.831C2.79698 12.5666 2.44346 12.3542 2.063 12.202C2.2256 11.1996 2.68929 10.2703 3.39248 9.53768C4.09567 8.80502 5.0051 8.3036 6 8.1V6C6 5.73478 6.10536 5.48043 6.29289 5.29289C6.48043 5.10536 6.73478 5 7 5V5ZM2 14.52V19C2 19.7956 2.31607 20.5587 2.87868 21.1213C3.44129 21.6839 4.20435 22 5 22H19C19.7956 22 20.5587 21.6839 21.1213 21.1213C21.6839 20.5587 22 19.7956 22 19V14.52C21.73 14.776 21.468 15.103 21.21 15.46C20.575 16.343 19.525 17 18 17C16.633 17 15.647 16.471 15 15.727C14.353 16.471 13.367 17 12 17C10.633 17 9.647 16.471 9 15.727C8.353 16.47 7.367 17 6 17C4.475 17 3.425 16.343 2.79 15.46C2.55575 15.1233 2.29132 14.8087 2 14.52V14.52Z" fill="#7D34BD"/>
</svg>
